<?xml version="1.0"?>
<svg xmlns="http://www.w3.org/2000/svg" xmlns:xlink="http://www.w3.org/1999/xlink" xmlns:svgjs="http://svgjs.com/svgjs" version="1.1" width="512" height="512" x="0" y="0" viewBox="0 0 64 64" style="enable-background:new 0 0 512 512" xml:space="preserve" class=""><g><path xmlns="http://www.w3.org/2000/svg" d="m60 47h-34.413a1 1 0 0 1 -.974-.772l-5.913-25.364a4.979 4.979 0 0 0 -4.874-3.864h-9.826a3 3 0 0 0 0 6h8.413a1 1 0 0 1 .974.772l5.557 23.818a6.972 6.972 0 0 0 6.817 5.41h1.779a6 6 0 1 0 8.92 0h11.08a6 6 0 1 0 8.92 0h3.54a3 3 0 0 0 0-6zm-24 10a4 4 0 1 1 -4-4 4 4 0 0 1 4 4zm20 0a4 4 0 1 1 -4-4 4 4 0 0 1 4 4zm4-6h-34.239a4.979 4.979 0 0 1 -4.869-3.864l-5.558-23.818a2.987 2.987 0 0 0 -2.921-2.318h-8.413a1 1 0 0 1 0-2h9.826a2.989 2.989 0 0 1 2.922 2.318l5.918 25.364a2.987 2.987 0 0 0 2.921 2.318h34.413a1 1 0 0 1 0 2z" fill="#ffffff" data-original="#000000" style="" class=""/><path xmlns="http://www.w3.org/2000/svg" d="m27 45h30a1 1 0 0 0 .975-.778l5-22a1 1 0 0 0 -.975-1.222h-40a1 1 0 0 0 -.975 1.222l5 22a1 1 0 0 0 .975.778zm22.082-9h-6.082v-6h6.9zm2.836-6h7.238l-1.363 6h-6.693zm-8.918 8h5.809l-.682 5h-5.127zm-2 5h-5.127l-.682-5h5.809zm2-15v-5h7.854l-.681 5zm-2 0h-7.173l-.681-5h7.854zm0 2v6h-6.082l-.818-6zm-8.1 6h-6.693l-1.363-6h7.238zm-6.238 2h6.511l.681 5h-6.054zm29.538 5h-6.054l.681-5h6.511zm3.409-15h-7.42l.682-5h7.874zm-28.482-5 .682 5h-7.42l-1.136-5z" fill="#ffffff" data-original="#000000" style="" class=""/><circle xmlns="http://www.w3.org/2000/svg" cx="32" cy="57" r="2" fill="#ffffff" data-original="#000000" style="" class=""/><circle xmlns="http://www.w3.org/2000/svg" cx="52" cy="57" r="2" fill="#ffffff" data-original="#000000" style="" class=""/><path xmlns="http://www.w3.org/2000/svg" d="m42 19a9 9 0 1 0 -9-9 9.011 9.011 0 0 0 9 9zm0-16a7 7 0 1 1 -7 7 7.008 7.008 0 0 1 7-7z" fill="#ffffff" data-original="#000000" style="" class=""/><path xmlns="http://www.w3.org/2000/svg" d="m41 15h2v-4h4v-2h-4v-4h-2v4h-4v2h4z" fill="#ffffff" data-original="#000000" style="" class=""/></g></svg>
